<?xml version="1.0" encoding="UTF-8"?>
<svg id="svg5" xmlns="http://www.w3.org/2000/svg" version="1.1" xmlns:inkscape="http://www.inkscape.org/namespaces/inkscape" xmlns:sodipodi="http://sodipodi.sourceforge.net/DTD/sodipodi-0.dtd" xmlns:svg="http://www.w3.org/2000/svg" viewBox="0 0 892.86 139.94">
  <!-- Generator: Adobe Illustrator 30.4.0, SVG Export Plug-In . SVG Version: 2.1.4 Build 226)  -->
  <defs>
    <style>
      .st0 {
        fill: #662825;
      }

      .st1 {
        fill: #ffe4b7;
      }
    </style>
  </defs>
  <rect class="st1" x="0" y="0" width="892.86" height="139.94" rx="69.97" ry="69.97"/>
  <sodipodi:namedview id="namedview7" bordercolor="#666666" borderopacity="1.0" inkscape:current-layer="layer1" inkscape:cx="1581.9628" inkscape:cy="666.78683" inkscape:document-units="mm" inkscape:pagecheckerboard="0" inkscape:pageopacity="0.0" inkscape:pageshadow="2" inkscape:window-height="1017" inkscape:window-maximized="1" inkscape:window-width="1920" inkscape:window-x="-8" inkscape:window-y="-8" inkscape:zoom="0.45291836" pagecolor="#ffffff" showgrid="false"/>
  <g id="layer1" inkscape:groupmode="layer" inkscape:label="Layer 1">
    <g id="g842">
      <path id="path824" class="st0" d="M75.56,102.16c6.92-4.79,13.3-7.98,20.75-10.64,1.86-.53,5.05-1.33,6.65-1.33,0-5.59.53-14.63,1.06-21.82.53-8.25,3.72-23.41,6.39-30.6,2.66-7.45,2.39-7.72-3.46-11.71-5.85-3.72-20.49-9.31-37.51-10.11-14.9-.53-22.61,3.46-28.47,5.85-4.52,1.86-5.32,3.99-3.46,13.04,2.13,9.31,2.66,19.16,3.19,32.19.53,11.97.27,19.42-.53,25.81-.53,2.66-1.06,5.05-1.06,5.05-1.6-1.86-4.52-2.66-6.39-3.72-5.05-1.33-9.31-.8-11.17,2.39-2.13,3.19,0,8.78,4.79,12.5,4.52,3.72,10.64,6.39,23.68,4.52,10.11-1.06,17.29-5.59,25.54-11.44h0ZM55.34,41.5c-.8-2.66-3.99-5.32-3.99-5.32,0,0,3.46-.53,9.84-5.32,6.65-5.05,13.57-1.06,13.57,3.72,0,2.66-3.72,4.52-3.19,3.19.8-1.86-1.86-5.05-6.65-3.46-4.26,1.33-5.05,4.52-5.32,6.12-.8,4.79,2.93,19.42,3.19,27.14,0,7.72-6.92,18.09-6.92,18.09,4.79-3.19,8.51-4.26,13.3-2.93,3.46,1.06,7.98,5.32,12.24,4.79,5.32-.53,7.98-4.79,8.25-9.84.27-3.72-1.86-8.25-5.85-9.58-3.46-1.06-6.65.53-7.72,2.66-.53,1.33-.27,3.19,1.06,3.99,2.13,1.06,3.46-.53,3.46-.53,0,0-1.06,4.26-6.39,2.93-2.39-.53-4.79-3.99-3.72-7.45,1.6-5.59,8.25-7.45,14.1-5.32,5.32,1.86,8.78,7.45,7.72,14.37-1.06,6.65-6.12,12.5-14.9,11.71-7.45-.53-8.78-4.52-15.43-3.19-4.26.8-9.31,3.46-9.31,3.46l-3.46-5.32s1.6-.8,3.46-2.93c2.13-2.39,2.66-6.12,2.66-9.05,0-2.66,1.86-25.27,0-31.93Z"/>
      <path id="path826" class="st0" d="M822.88,0H69.7h.27C31.39,0,0,31.39,0,69.97s31.39,69.97,69.97,69.97c1.06,0,2.13,0,3.19-.27h749.72c38.58,0,69.97-31.39,69.97-69.97C892.86,31.13,861.46,0,822.88,0ZM822.09,129.57H122.12c-1.86,0-3.72-.27-7.45-.27-2.13,0-2.93-1.6-1.86-3.19.53-.8,1.6-1.86,2.66-3.19,14.9-12.77,24.48-31.93,24.48-52.94s-9.05-39.11-23.15-51.88c-1.33-1.6-3.19-3.72-3.72-4.52-1.06-1.6-.27-3.19,1.86-3.19,3.72,0,5.59-.27,7.45-.27h697.84c32.99,0,62.52,26.6,62.52,59.59s-26.6,59.59-59.59,59.59l-1.06.27ZM18.62,104.02c-8.25-12.24-10.38-24.74-10.38-34.05,0-16.49,6.39-31.93,18.09-43.63,11.71-11.71,27.14-18.09,43.63-18.09,34.05,0,61.72,27.67,61.72,61.72,0,12.77-3.99,25.01-10.91,34.85-.27-2.66-4.79-6.92-10.64-8.51-4.52-1.33-7.98-1.06-10.38-.8-9.84,1.33-15.7,5.85-23.68,10.64-6.39,3.72-12.5,7.98-25.27,10.11-8.25,1.33-18.09-.53-23.15-3.72-3.19-1.86-7.45-6.12-9.05-8.51ZM31.13,121.58s3.46,1.33,8.25,1.06c16.76,0,29.27-8.25,36.71-11.17,8.51-3.46,16.76-5.32,22.61,1.06,1.33,1.6,3.46,2.93,5.59,2.66-10.11,10.38-24.48,16.76-40.17,16.76-19.69.53-32.99-10.38-32.99-10.38Z"/>
      <path id="path828" class="st0" d="M620.42,86.47c-.8-.27-1.06,0-1.6,1.33-1.06,2.39-3.72,9.31-5.59,11.17-3.19,3.46-6.39,3.72-9.05,4.26-1.06.27-3.99,0-6.65.27-3.72,0-5.05-1.06-5.05-1.06-1.86-4.26-.8-25.27-.53-48.15.27-20.22.53-22.88,1.06-23.68.53-.8,1.06-.8,3.72-1.06,2.39-.27,3.46-.27,4.52-2.66l.53-2.66h-35.38s-.53,3.19,2.13,4.79c.27.27,1.86.27,2.93.27,2.39,0,3.72,1.86,4.26,3.99.53,1.86,2.39,23.15,2.13,50.02l-1.33,20.22c0,2.66-.27,5.59-5.59,6.39-.53,0-1.86.53-2.39,1.06-1.06,1.06-.8,1.86,0,2.93.8.53,4.79.27,22.88.27s21.55,0,21.02,3.46c-.27,1.6.53,2.39,1.06,2.39,2.13.53,3.19-3.19,3.19-3.19,1.33-5.59,4.79-25.27,4.79-28.73.27-1.06-.53-1.6-1.06-1.6h0ZM667.25,110.14c-2.93,0-5.05-5.32-9.31-21.55-.53-1.86-1.06-3.99-1.33-4.79-.27-.53-.8-2.66-1.33-4.79s-1.33-5.32-1.6-7.18c-1.06-4.26-2.66-11.71-3.99-19.16-.8-3.99-1.33-6.12-2.13-6.12-.27,0-2.13,1.6-4.26,2.13-4.26,1.33-4.52,1.86-5.32,5.59-.8,3.46-2.13,10.11-2.66,11.71-1.86,7.72-6.92,27.14-7.45,29-1.06,3.99-2.39,8.51-2.93,10.11-.27.53-.53,1.6-.8,2.13-1.86,3.19-2.39,2.66-3.72,3.19s-.53,2.93-.53,2.93h18.89s.27-1.06.27-1.6c0-1.06-.53-1.33-1.86-1.33-3.72,0-3.99-3.46-3.99-5.59,0-3.19.53-9.05,1.6-10.11,1.6-1.86,10.64-.8,10.64-.8,3.19-.27,3.99,1.86,5.05,6.39.53,2.39.8,4.26.8,5.59,0,2.39-.27,3.46-1.06,3.99-.53.53-1.06.8-1.86.8-1.06-.27-1.86.53-1.86,1.86l.27.8h21.28s.53-1.06.53-1.86q0-1.33-1.33-1.33h0ZM645.96,87.8c-2.66,1.06-7.45.8-8.25.8-.27,0-1.86-.53-2.13-.8-.8-1.06-.8-2.13,0-5.05.27-1.33,1.33-5.32,2.13-8.78,1.06-3.99,1.86-6.65,2.39-6.92,1.06-.8,1.86,0,2.39,1.6.27.8,2.66,9.05,3.99,14.63.53,1.6.8,3.99-.53,4.52h0ZM833.79,50.81c2.66.53,4.26,1.86,4.26,6.92,0,1.6.27,10.11.27,17.29v13.04c0,1.33-1.06,0-1.6-.53-.8-.8-1.86-1.86-5.05-6.92-.8-1.33-1.86-3.19-2.39-3.99-2.93-4.79-7.98-16.49-9.84-20.49-1.6-3.46-1.6-4.52,0-5.05.8-.27,1.6-.8,1.6-1.86v-1.33h-22.35s-1.06,2.39,1.33,3.46c.53.27,1.86.53,2.39,1.06,2.39,1.86,2.39,4.52,2.39,27.67,0,11.71-.27,22.88-.27,25.27,0,2.13-.8,3.99-2.13,4.52-.53.27-1.86.53-2.39,1.06-1.06,1.06-.8,2.13-.8,2.13h17.03s0-2.13-1.06-2.66c-1.6-.53-2.93-.8-4.26-3.72-1.06-2.13-1.06-2.39-1.06-19.69v-20.49c0-1.06,1.6,0,1.6,0,.8,1.33,1.86,3.72,4.79,9.31.53,1.06,12.5,23.15,15.43,27.14,1.33,1.86,2.66,3.99,3.19,4.79,1.6,2.39,3.19,5.05,4.79,7.18.8,1.06,1.86,2.39,3.19,2.39.53,0,1.6-.53,1.33-2.13,0-1.06-.27-6.39-.53-12.24-.53-11.44,0-46.03.8-48.95.53-1.86,1.6-3.19,3.19-3.46,1.6-.27,1.6-2.66,1.6-2.66h-18.62c.53,0-.8,2.13,3.19,2.93h0ZM687.2,49.75c0,.8,1.06,1.33,2.66,1.33,3.19,0,3.19.8,3.46,3.19.27,1.86-1.06,6.65-1.6,8.51-1.6,5.32-5.05,10.91-6.12,11.17-1.06,0-1.06-.27-1.6-.53-.8-.8-1.33-1.6-1.6-2.66-1.6-3.46-2.39-5.05-3.46-8.51-1.06-3.46-2.66-8.78-2.39-9.84,0-.8.53-1.06,1.6-1.06,1.6-.27,2.13-3.19,2.13-3.19h-20.75s-.8,3.19,1.06,3.46c.8.27,1.86.53,2.13,1.06.8.8,3.99,10.11,6.12,14.1,2.39,4.26,7.18,12.5,7.45,13.57.8,1.86,1.6,5.05,1.33,13.04,0,4.79-.27,10.38-.27,12.24q-.27,3.46-1.6,4.26c-.8.53-1.86.53-2.66.8-1.6.53-1.06,2.39-1.06,2.39h22.08l.27-1.6c-.27-1.33-1.33-1.06-2.39-1.33-.53,0-1.86.27-2.93-1.86s-1.06-2.93-1.33-14.37v-11.97s0-1.33,1.06-2.93c2.13-2.93,4.52-6.65,5.59-8.78,2.13-4.26,4.52-9.58,6.92-15.43,1.06-2.66,1.6-3.99,2.39-3.99.53,0,1.06-1.06,1.06-2.39v-.53h-17.56c.8,0-.27.8,0,1.86h0ZM288.4,62.52c-1.6-3.72-4.52-7.18-6.92-9.31-2.93-2.66-7.18-4.52-13.3-4.79-1.86,0-6.12.27-9.05,1.86-9.05,5.32-11.71,13.83-12.5,15.7-1.33,3.46-2.13,8.25-2.66,13.57-.27,4.26,1.06,12.77,2.66,17.03,3.46,9.31,10.64,16.23,18.09,17.56,2.93.53,6.92.53,10.64-1.33,6.39-2.93,10.38-7.18,13.04-13.83,1.06-2.39,2.39-5.85,3.19-10.64.53-3.99.53-11.97-.53-17.03-.53-2.39-1.6-6.12-2.66-8.78h0ZM280.15,92.32c-.8,4.52-1.86,7.72-2.39,8.78-2.13,3.72-5.85,6.39-7.18,6.65-3.46.8-5.59.27-8.51-2.66-1.6-1.6-3.19-3.72-4.26-5.85-2.13-5.59-3.19-14.1-2.66-22.61,1.06-13.3,5.85-21.82,12.5-21.55,5.32,0,9.31,4.52,11.71,13.04,1.33,4.26,1.6,18.62.8,24.21h0ZM493.78,62.52c-1.6-3.72-4.52-7.18-6.92-9.31-2.93-2.66-7.18-4.52-13.3-4.79-1.6,0-6.12.27-9.05,1.86-9.05,5.32-11.71,13.83-12.5,15.7-1.33,3.46-2.13,8.25-2.66,13.57-.27,4.26,1.06,12.77,2.66,17.03,3.46,9.31,10.64,16.23,18.09,17.56,2.93.53,6.92.53,10.64-1.33,6.39-2.93,10.38-7.18,13.04-13.83,1.06-2.39,2.39-5.85,3.19-10.64.53-3.99.53-11.97-.53-17.03-.53-2.39-1.33-6.12-2.66-8.78ZM485.54,92.32c-.8,4.52-1.86,7.72-2.39,8.78-2.13,3.72-5.85,6.39-7.18,6.65-3.46.8-5.59.27-8.51-2.66-1.6-1.6-3.19-3.72-4.26-5.85-2.13-5.59-3.19-14.1-2.66-22.61,1.06-13.3,5.85-21.82,12.5-21.55,5.32,0,9.31,4.52,11.71,13.04,1.33,4.26,1.86,18.62.8,24.21h0ZM393.22,74.23c-10.38-6.39-10.91-6.65-11.44-9.58-1.06-4.52.8-8.25,4.79-9.31,4.52-1.06,9.05,1.33,11.71,7.72.8,1.86.8,4.26,1.06,4.79.53,1.33,2.39,1.06,2.66-.27v-4.52c0-3.19.53-5.59.8-9.84.53-5.05-.27-6.12-1.86-3.99-1.33,1.6-2.93,2.13-3.99,1.6-1.06-.53-4.26-1.6-7.45-1.86-1.33,0-5.32.27-7.45,1.33s-4.52,2.93-6.65,6.65c-1.6,2.93-2.13,6.65-2.13,9.84,0,3.46.8,6.39,2.39,9.31,1.06,2.39,5.59,6.65,10.64,9.84,2.39,1.6,4.52,2.66,5.59,3.46,2.66,1.6,4.52,3.46,5.59,5.32,1.06,2.13,1.86,4.26,1.6,6.65-.53,3.46-1.86,5.32-3.46,6.39-1.86,1.06-3.72,1.33-6.12,1.33-2.13,0-3.72-1.06-5.59-2.13-3.46-2.39-5.59-5.85-6.92-9.31-.53-1.33-1.33-4.52-1.6-5.05-.53-1.06-2.13-.8-2.93.27-.27.53,0,4.79.27,7.72.27,3.46-.27,8.51-.53,11.71-.27,2.66-1.6,3.99.27,5.05.8.53,2.13-2.13,2.39-3.72.27-1.06,1.06-2.66,1.86-2.66.53,0,1.6.27,1.86.53,1.06.8,4.52,2.66,6.65,3.19,4.26,1.06,7.98.27,9.58-.27,6.92-2.66,11.44-9.84,11.44-18.89,0-3.72-.8-7.45-2.13-10.11-2.13-5.05-4.52-7.18-10.91-11.17h0ZM431.53,74.23c-10.38-6.39-10.91-6.65-11.44-9.58-1.06-4.52.8-8.25,4.79-9.31,4.52-1.06,9.05,1.33,11.71,7.72.8,1.86.8,4.26,1.06,4.79.53,1.33,2.39,1.06,2.66-.27v-4.52c0-3.19.53-5.59.8-9.84.53-5.05-.27-6.12-1.86-3.99-1.33,1.6-2.93,2.13-3.99,1.6-1.06-.53-4.26-1.6-7.45-1.86-1.33,0-5.32.27-7.45,1.33s-4.52,2.93-6.65,6.65c-1.6,2.93-2.13,6.65-2.13,9.84,0,3.46.8,6.39,2.39,9.31,1.06,2.39,5.59,6.65,10.64,9.84,2.39,1.6,4.52,2.66,5.59,3.46,2.66,1.6,4.52,3.46,5.59,5.32,1.06,2.13,1.86,4.26,1.6,6.65-.53,3.46-1.86,5.32-3.46,6.39-1.86,1.06-3.72,1.33-6.12,1.33-2.13,0-3.72-1.06-5.59-2.13-3.46-2.39-5.59-5.85-6.92-9.31-.53-1.33-1.33-4.52-1.6-5.05-.53-1.06-2.13-.8-2.93.27-.27.53,0,4.79.27,7.72.27,3.46-.27,8.51-.8,11.71-.27,2.66-1.6,3.99.53,5.05.8.53,2.13-2.13,2.39-3.72.27-1.06,1.06-2.66,1.86-2.66.53,0,1.6.27,1.86.53,1.06.8,4.52,2.66,6.65,3.19,4.26,1.06,7.98.27,9.58-.27,6.92-2.66,11.44-9.84,11.44-18.89,0-3.72-.8-7.45-2.13-10.11-2.13-5.05-4.52-7.18-10.91-11.17h0Z"/>
      <path id="path830" class="st0" d="M249.82,116.79c-.8.27-.8,1.33-1.06,2.39-.53,1.86-2.39,3.46-3.72,3.46-2.93,0-7.18-7.18-7.18-16.76.27-11.17-1.6-18.09-4.52-20.75-3.72-3.19-4.79-2.13-5.85-2.66-.53-.27-.8-1.6,0-2.13,4.26-2.39,7.45-5.59,9.58-10.38,1.6-3.99,2.39-10.64,1.33-14.37-.8-2.39-1.6-4.52-3.72-5.85-1.6-1.06-3.19-1.6-6.12-1.6-2.13,0-2.93.27-6.65.53-5.59.53-10.38,1.33-14.1,1.33h-5.85c1.6-5.59,2.13-13.04.8-17.56-1.06-3.19-2.13-6.12-5.05-8.51-2.13-1.6-4.52-2.13-8.51-2.13-3.19,0-4.26.27-9.31.8-7.98.8-14.63,1.86-19.69,1.86h-9.84l-.53,1.06c-.53.8-1.06,1.6-.53,2.66.53.8.53.53,2.93.53,3.19,0,3.99.53,4.52,2.13,1.06,2.66,1.33,16.49,1.33,46.56v25.81c0,3.46-.8,4.79-1.33,5.32-.8.8-1.86.8-2.66.8-2.13,0-3.19.53-3.72,1.6-.8,1.33.53,2.39.53,2.39h31.66c.53-.8.27-2.66-.27-2.93-1.06-1.06-1.6-1.33-3.46-1.33-1.06,0-3.99-.53-4.79-1.86-1.6-2.93-1.86-5.05-1.86-22.35v-14.63l3.46-.27c11.44-1.06,20.75-6.65,25.54-17.03h1.33c2.13,0,2.93.27,3.19,1.6.8,1.86,1.06,11.71.8,32.99v18.36c0,2.39-.53,3.46-.8,3.72-.53.53-1.33.53-1.86.53-1.6,0-2.13.27-2.66,1.06-.53.8.27,1.86.27,1.86h22.35c.27-.53.27-1.86-.27-2.13s-.8-.53-2.39-.53c-.8,0-2.93-.27-3.46-1.33-1.06-2.13-1.33-3.46-1.33-15.7v-10.38h1.6c1.86.27,3.99,3.99,5.59,7.18,1.86,3.72,5.85,12.77,9.58,25.81,2.39,7.98,7.72,11.44,11.71,11.44,2.39,0,6.39-1.86,7.45-7.98.53-1.86-1.06-3.19-2.39-2.66ZM191.55,46.29c-.27,4.26-1.86,7.98-2.66,9.31-1.6,2.39-2.93,3.72-4.52,5.05-1.33,1.06-3.99,2.93-6.92,3.46-1.33.27-3.19.27-4.52,0l-.53-.53v-29c.27-3.19.8-3.46,2.13-3.99,2.13-1.06,7.45-1.33,9.84-.27,5.32,2.13,7.45,6.39,7.18,15.96ZM224.81,75.82c-1.06.8-2.93,2.13-4.79,2.39-1.06.27-2.13.27-3.19,0l-.53-.27v-20.75c.27-2.39.53-2.39,1.6-2.93,1.33-.8,5.32-.8,6.92-.27,4.26,1.6,5.85,4.52,5.32,11.44,0,2.93-1.33,5.85-1.86,6.65-1.06,1.86-2.13,2.93-3.46,3.72ZM326.17,67.04s-2.39-1.06-3.46,1.06c-.53,1.06.27,3.19-.53,4.52-.8,1.6-5.85,1.6-7.72,1.6-2.13,0-4.79.53-5.59-1.6-.8-2.39.53-13.04.53-13.83,0-.53-.27-1.06,1.06-1.6,1.33-.27,8.78-.53,11.17.53,2.39,1.06.53,3.19,1.86,4.26s2.39.8,2.66-1.33,0-3.72,0-5.59c0-8.78.8-10.38-.27-10.38-.53,0-.8.53-1.33,1.33-1.06,1.6-1.06,2.66-17.29,2.66-13.3,0-14.63,0-15.16.8-.27.53-.53,1.06-.53,1.6,0,.8.8.8,2.39,1.06,1.33.27,2.13.53,2.39.53,2.13.8,1.6,34.32,1.6,34.32v18.09c0,2.39-.53,3.46-.8,3.72-.53.53-1.33.53-1.86.53-1.6,0-2.39.27-2.66,1.06-.53.8.27,1.86.27,1.86h22.35c.27-.53.27-1.86-.27-2.13s-.8-.53-2.39-.53c-.8,0-2.93-.27-3.46-1.33-1.06-2.13-1.33-3.46-1.33-15.7l.27-2.13c0-6.65,0-7.98.53-8.51.8-.8,12.5-1.06,13.3-.27.27.27,0,1.6.8,2.93.53.8.8,1.6,2.39,2.13l1.33-.27-.53-6.12c.27-4.26.27-13.3.27-13.3h0ZM367.15,96.58c-1.6.27-1.86,1.86-2.66,3.72-.8,1.6-1.33,3.19-2.93,3.99-2.39,1.6-12.5,1.6-13.57,1.33-1.06-.27-1.06-9.58-.8-12.5l.27-2.13c0-6.65,0-7.98.53-8.51.8-.8,12.5-1.06,13.3-.27.27.27,0,1.6.8,2.93.53.8.8,1.6,2.39,2.13l1.33-.27-.53-6.12c-.27-4.79-.27-13.57-.27-13.57,0,0-2.39-1.06-3.46,1.06-.53,1.06.27,3.19-.53,4.52-.8,1.6-5.85,1.6-7.72,1.6-2.13,0-4.79.53-5.59-1.6-.8-2.39.53-13.04.53-13.83,0-.53-.27-1.06,1.06-1.6,1.33-.27,8.78-.53,11.17.53,2.39,1.06.53,3.19,1.86,4.26s2.39.8,2.66-1.33,0-3.72,0-5.59c0-8.78.8-10.38-.27-10.38-.53,0-.8.53-1.33,1.33-1.06,1.6-1.06,2.66-17.29,2.66-13.3,0-14.63,0-15.16.8-.27.53-.53,1.06-.53,1.6,0,.8.8.8,2.39,1.06,1.33.27,2.13.53,2.39.53,2.13.8,1.6,34.32,1.6,34.32v18.09c0,2.39-.53,3.46-.8,3.72-.53.53-1.33.53-1.86.53-1.6,0-2.13.27-2.66,1.06-.53.8.27,1.86.27,1.86h27.67c3.19.27,2.66,3.46,2.66,3.99,0,1.06,2.13,2.13,2.66.27,2.39-8.25,3.19-17.56,3.19-18.36.27-.8,0-1.86-.8-1.86h0ZM547.53,116.79c-.8.27-.8,1.33-1.06,2.39-.53,1.86-2.39,3.46-3.72,3.46-2.93,0-7.18-7.18-7.18-16.76.27-11.17-1.6-18.09-4.52-20.75-3.72-3.19-4.79-2.13-5.85-2.66-.53-.27-.8-1.6,0-2.13,4.26-2.39,7.45-5.59,9.58-10.38,1.6-3.99,2.39-10.64,1.33-14.37-.8-2.39-1.6-4.52-3.72-5.85-1.6-1.06-3.19-1.6-6.12-1.6-2.13,0-2.93.27-6.65.53-5.59.53-10.38,1.33-14.1,1.33h-6.92l-.27.8c-.53.53-.8,1.33-.53,1.86s.53.53,2.13.53c2.13,0,2.93.27,3.19,1.6.8,1.86,1.06,11.71.8,32.99v18.36c0,2.39-.53,3.46-.8,3.72-.53.53-1.33.53-1.86.53-1.33,0-2.13.27-2.66,1.06-.53.8.27,1.86.27,1.86h22.35c.53-.53.27-1.86-.27-2.13-.53-.27-.8-.53-2.39-.53-.8,0-2.93-.27-3.46-1.33-1.06-2.13-1.33-3.46-1.33-15.7v-10.38h1.6c1.86.27,3.99,3.99,5.59,7.18,1.86,3.72,5.85,12.77,9.58,25.81,2.39,7.98,7.72,11.44,11.71,11.44,2.39,0,6.39-1.86,7.45-7.98.8-2.13-1.06-3.46-2.13-2.93h0ZM522.52,75.82c-1.06.8-2.93,2.13-4.79,2.39-1.06.27-2.13.27-3.19,0l-.53-.27v-20.75c.27-2.39.53-2.39,1.6-2.93,1.33-.8,5.32-.8,6.92-.27,4.26,1.6,5.59,4.52,5.32,11.44,0,2.93-1.33,5.85-1.86,6.65-1.33,1.86-2.39,2.93-3.46,3.72h0ZM746.8,47.36c-.53.8-1.86,1.06-2.93,1.33-.27,0-1.33.27-4.26.27-2.13,0-5.85-.53-10.91-.53-2.93,0-4.26.27-6.39.53-1.33,0-3.19.53-5.32.53-3.19,0-5.05-.27-6.39-1.6-.8-.8-1.6-1.33-1.86-1.33-.8,0-1.33.8-.8,2.66.27.8.53,5.59.53,10.38s.27,9.05.53,9.31.8.53,1.33.53c1.33,0,1.06-.8,1.86-5.32.53-2.13.27-3.46,1.6-4.26,1.86-1.33,4.26-1.86,7.18-2.13h2.39v35.65c.27,4.79-.27,10.38-.27,12.24-.27,3.46-.27,3.72-1.6,4.26-.8.53-1.86.53-2.66.8-1.6.53-1.06,2.39-1.06,2.39h22.61l-.27-1.6c-.27-1.33-1.33-1.06-2.39-1.33-.53,0-1.86.27-2.93-1.86s-1.06-2.93-1.33-14.37v-36.71h5.32c1.86,0,3.19,1.06,3.72,1.6,1.33.8,1.86,1.86,2.13,5.59.27,2.93.53,4.26,1.6,4.79,1.6.53,1.86-1.06,1.86-9.05,0-5.05,0-6.39.27-9.05v-3.72c.8-1.86-.27-1.6-1.6,0h0ZM795.48,61.72c-1.6-3.72-4.79-7.18-6.92-9.31-2.93-2.66-7.18-4.52-13.3-4.79-1.86,0-6.12.27-9.05,1.86-9.05,5.32-11.71,13.83-12.5,15.7-1.33,3.46-2.13,8.25-2.66,13.57-.27,4.26,1.06,12.77,2.66,17.29,3.46,9.05,10.64,15.96,18.09,17.56,3.19.53,6.92.53,10.64-1.33,6.39-2.93,10.38-7.18,13.04-13.83,1.06-2.39,2.39-5.85,3.19-10.64.53-3.99.53-11.97-.53-17.03-.8-2.93-1.6-6.65-2.66-9.05h0ZM787.23,91.25c-.8,4.52-1.86,7.72-2.39,8.78-2.13,3.72-5.85,6.39-7.18,6.65-3.46.8-5.59.27-8.51-2.66-1.6-1.6-3.46-3.72-4.26-5.85-2.13-5.59-3.19-14.1-2.66-22.61,1.06-13.3,5.85-21.55,12.5-21.55,5.32,0,9.31,4.52,11.71,13.04,1.33,4.52,1.6,18.89.8,24.21h0Z"/>
    </g>
  </g>
</svg>