<?xml version="1.0" encoding="UTF-8"?>
<svg id="Capa_1" xmlns="http://www.w3.org/2000/svg" version="1.1" viewBox="0 0 32 32">
  <!-- Generator: Adobe Illustrator 30.1.0, SVG Export Plug-In . SVG Version: 2.1.1 Build 136)  -->
  <defs>
    <style>
      .st0 {
        isolation: isolate;
      }

      .st1 {
        fill: #ffe4b7;
      }

      .st2 {
        fill: #643126;
        stroke: #ffe4b7;
        stroke-miterlimit: 10;
        stroke-width: .5px;
      }
    </style>
  </defs>
  <g>
    <path class="st2" d="M31,16c0,8.3-6.7,15-15,15S1,24.3,1,16,7.7,1,16,1s15,6.7,15,15ZM23,21.5c1.8,0,3.7.3,4.7,2,1.1-1.7,2-3.4,2.2-5.4s0-5-.9-7.3-.7-1.6-1.2-2.3-1.2-1.7-2-2.5-1.9-1.6-3-2.3c-1.8-1-3.7-1.6-5.8-1.8s-3.1,0-4.7.5-3.6,1.4-5.1,2.6c-2.3,1.8-4.4,5.4-5,8.3s-.3,3.4,0,5,.9,3.1,1.7,4.5c1.1,2.1,3.2,3.4,5.6,3.5s2.5,0,3.7-.4,2.6-1,3.8-1.7c2-1.2,3.6-2.5,6.1-2.8ZM20.3,28.7c1.3-.6,2.4-1.4,3.5-2.5-1.1-.2-1.2-1.1-2.3-1.4s-2.5-.1-3.6.5-2.7,1.2-4.1,1.8-3.2,1-4.9.9c1,.8,2.2,1.2,3.4,1.6,2.7.8,5.5.4,8.1-.8Z"/>
    <path class="st2" d="M25.3,6.1c-1.5-1.1-3.1-1.8-4.9-2.2-2.8-.6-6.1-1-8.9,0-.8.3-1.6.6-2.4,1-.9.4-.8,1.5-.6,2.3.2,1.1.5,2.1.6,3.2.3,2.5.4,5,.4,7.5,0,1.4,0,2.8-.4,4.1-1-.7-2.4-1.3-3.5-.8-.8.4-1.1,1.5-.7,2.3.7,1.4,2.1,2.2,3.7,2.3,1.4.1,2.7,0,4-.3,2.6-.6,4-2.1,6.1-3.3,1-.6,2.1-1.1,3.2-1.5.5-.2,1.1-.2,1.6-.2l.2-3.5c.1-2.2.3-4.2.9-6.3l1-3.4c.1-.5-.2-1-.5-1.3Z"/>
  </g>
  <g class="st0">
    <g class="st0">
      <path class="st1" d="M22.9,7.7l-.9,3.8h-.3c0-1-.3-1.8-.8-2.3-.5-.5-1.1-.8-1.8-.8s-1.6.3-2.4,1c-.8.7-1.5,1.7-2,3.1-.4,1.1-.7,2.3-.7,3.4s.2,1.8.7,2.3c.5.5,1.2.8,2,.8s1.3-.2,1.9-.5c.6-.3,1.1-.8,1.7-1.5h.4c-.7,1.1-1.4,1.8-2.2,2.3-.7.4-1.6.7-2.7.7s-2.6-.4-3.4-1.3c-.9-.9-1.3-2-1.3-3.4s.3-2.5,1-3.7c.7-1.2,1.7-2.1,3-2.9,1.3-.7,2.6-1.1,3.9-1.1s1.1.1,1.8.3c.4.1.6.2.8.2.3,0,.6-.2.9-.5h.3Z"/>
    </g>
  </g>
</svg>